<svg xmlns="http://www.w3.org/2000/svg" width="56" height="56" viewBox="0 0 56 56" fill="none">
<g filter="url(#filter0_b_2158_243)">
<mask id="path-1-inside-1_2158_243" fill="white">
<path fill-rule="evenodd" clip-rule="evenodd" d="M19.0556 34.7408C17.6002 32.8097 16.8 30.4461 16.8 28C16.8 25.0296 17.98 22.1808 20.0804 20.0804C22.1808 17.98 25.0296 16.8 28 16.8C30.4461 16.8 32.8097 17.6002 34.7408 19.0556L43.1778 10.6186C45.0724 8.72402 44.9982 5.5891 42.7189 4.1807C38.3314 1.46964 33.2415 0 28 0C20.574 -2.30169e-06 13.452 2.94998 8.20103 8.20099C2.95001 13.452 9.05919e-06 20.5739 0 28C-6.39405e-06 33.2414 1.46962 38.3314 4.18068 42.7189C5.58907 44.9982 8.724 45.0723 10.6186 43.1778L19.0556 34.7408ZM51.8193 13.2811C50.4109 11.0018 47.276 10.9276 45.3814 12.8222L36.9444 21.2592C38.3998 23.1903 39.2 25.5539 39.2 28C39.2 30.9704 38.02 33.8192 35.9196 35.9196C33.8192 38.02 30.9704 39.2 28 39.2C25.5539 39.2 23.1903 38.3998 21.2592 36.9444L12.8222 45.3814C10.9276 47.2759 11.0017 50.4109 13.281 51.8193C17.6685 54.5303 22.7585 56 28 56C35.426 56 42.548 53.05 47.799 47.799C53.05 42.548 56 35.4261 56 28C56 22.7585 54.5304 17.6686 51.8193 13.2811Z"/>
</mask>
<path fill-rule="evenodd" clip-rule="evenodd" d="M19.0556 34.7408C17.6002 32.8097 16.8 30.4461 16.8 28C16.8 25.0296 17.98 22.1808 20.0804 20.0804C22.1808 17.98 25.0296 16.8 28 16.8C30.4461 16.8 32.8097 17.6002 34.7408 19.0556L43.1778 10.6186C45.0724 8.72402 44.9982 5.5891 42.7189 4.1807C38.3314 1.46964 33.2415 0 28 0C20.574 -2.30169e-06 13.452 2.94998 8.20103 8.20099C2.95001 13.452 9.05919e-06 20.5739 0 28C-6.39405e-06 33.2414 1.46962 38.3314 4.18068 42.7189C5.58907 44.9982 8.724 45.0723 10.6186 43.1778L19.0556 34.7408ZM51.8193 13.2811C50.4109 11.0018 47.276 10.9276 45.3814 12.8222L36.9444 21.2592C38.3998 23.1903 39.2 25.5539 39.2 28C39.2 30.9704 38.02 33.8192 35.9196 35.9196C33.8192 38.02 30.9704 39.2 28 39.2C25.5539 39.2 23.1903 38.3998 21.2592 36.9444L12.8222 45.3814C10.9276 47.2759 11.0017 50.4109 13.281 51.8193C17.6685 54.5303 22.7585 56 28 56C35.426 56 42.548 53.05 47.799 47.799C53.05 42.548 56 35.4261 56 28C56 22.7585 54.5304 17.6686 51.8193 13.2811Z" fill="url(#paint0_radial_2158_243)"/>
<path d="M16.8 28H17.1445H16.8ZM20.0804 20.0804L20.324 20.324L20.0804 20.0804ZM28 16.8V17.1445V16.8ZM36.9444 21.2592L36.7008 21.0156L36.489 21.2273L36.6693 21.4665L36.9444 21.2592ZM39.2 28H39.5445H39.2ZM21.2592 36.9444L21.4665 36.6693L21.2273 36.489L21.0155 36.7008L21.2592 36.9444ZM19.3307 34.5334C17.9201 32.6617 17.1445 30.3708 17.1445 28H16.4555C16.4555 30.5213 17.2803 32.9576 18.7804 34.9481L19.3307 34.5334ZM17.1445 28C17.1445 25.1209 18.2882 22.3598 20.324 20.324L19.8368 19.8368C17.6718 22.0018 16.4555 24.9382 16.4555 28H17.1445ZM20.324 20.324C22.3598 18.2882 25.121 17.1445 28 17.1445V16.4555C24.9382 16.4555 22.0018 17.6718 19.8368 19.8368L20.324 20.324ZM28 17.1445C30.3708 17.1445 32.6617 17.9201 34.5334 19.3307L34.9482 18.7804C32.9576 17.2803 30.5213 16.4555 28 16.4555V17.1445ZM45.1378 12.5786L36.7008 21.0156L37.188 21.5028L45.625 13.0658L45.1378 12.5786ZM36.6693 21.4665C38.0799 23.3383 38.8555 25.6292 38.8555 28H39.5445C39.5445 25.4787 38.7197 23.0424 37.2195 21.0518L36.6693 21.4665ZM38.8555 28C38.8555 30.8791 37.7118 33.6402 35.676 35.676L36.1632 36.1632C38.3282 33.9982 39.5445 31.0618 39.5445 28H38.8555ZM35.676 35.676C33.6402 37.7118 30.879 38.8555 28 38.8555V39.5445C31.0618 39.5445 33.9982 38.3282 36.1632 36.1632L35.676 35.676ZM28 38.8555C25.6292 38.8555 23.3383 38.0799 21.4665 36.6693L21.0518 37.2195C23.0423 38.7197 25.4786 39.5445 28 39.5445V38.8555ZM21.0155 36.7008L12.5785 45.1377L13.0658 45.625L21.5028 37.188L21.0155 36.7008ZM16.8 28L17.4891 28V28H16.8ZM19.0556 34.7408L19.5428 35.228L19.9664 34.8045L19.6059 34.3261L19.0556 34.7408ZM20.0804 20.0804L19.5932 19.5932L20.0804 20.0804ZM28 16.8V17.4891V16.8ZM34.7408 19.0556L34.3261 19.6059L34.8045 19.9664L35.228 19.5428L34.7408 19.0556ZM43.1778 10.6186L42.6906 10.1314L43.1778 10.6186ZM42.7189 4.1807L43.0811 3.59452L42.7189 4.1807ZM28 0V0.689061V0ZM8.20103 8.20099L8.68827 8.68823L8.20103 8.20099ZM0 28H-0.689061H0ZM4.18068 42.7189L3.59449 43.0811H3.59449L4.18068 42.7189ZM10.6186 43.1778L10.1313 42.6905L10.6186 43.1778ZM45.3814 12.8222L44.8942 12.3349L45.3814 12.8222ZM51.8193 13.2811L52.4055 12.9188L51.8193 13.2811ZM36.9444 21.2592L36.4572 20.7719L36.0336 21.1955L36.3941 21.6739L36.9444 21.2592ZM39.2 28H39.8891H39.2ZM35.9196 35.9196L35.4323 35.4324L35.9196 35.9196ZM21.2592 36.9444L21.6739 36.3941L21.1955 36.0336L20.7719 36.4571L21.2592 36.9444ZM12.8222 45.3814L13.3094 45.8686L12.8222 45.3814ZM13.281 51.8193L12.9188 52.4054L13.281 51.8193ZM47.799 47.799L48.2862 48.2862L47.799 47.799ZM56 28H56.6891H56ZM16.1109 28C16.1109 30.5966 16.9604 33.1056 18.5053 35.1555L19.6059 34.3261C18.24 32.5137 17.4891 30.2955 17.4891 28L16.1109 28ZM19.5932 19.5932C17.3635 21.8228 16.1109 24.8468 16.1109 28H17.4891C17.4891 25.2123 18.5965 22.5388 20.5677 20.5676L19.5932 19.5932ZM28 16.1109C24.8468 16.1109 21.8228 17.3635 19.5932 19.5932L20.5677 20.5676C22.5388 18.5965 25.2123 17.4891 28 17.4891V16.1109ZM35.1555 18.5053C33.1056 16.9604 30.5966 16.1109 28 16.1109V17.4891C30.2956 17.4891 32.5138 18.24 34.3261 19.6059L35.1555 18.5053ZM42.6906 10.1314L34.2536 18.5683L35.228 19.5428L43.665 11.1058L42.6906 10.1314ZM42.3567 4.76689C44.1837 5.89578 44.3354 8.48652 42.6906 10.1314L43.665 11.1058C45.8093 8.96153 45.8127 5.28241 43.0811 3.59452L42.3567 4.76689ZM28 0.689061C33.1124 0.689061 38.0771 2.12251 42.3567 4.76689L43.0811 3.59452C38.5857 0.816767 33.3705 -0.689061 28 -0.689061V0.689061ZM8.68827 8.68823C13.8101 3.56645 20.7567 0.689059 28 0.689061V-0.689061C20.3912 -0.689064 13.094 2.33352 7.71379 7.71375L8.68827 8.68823ZM0.689061 28C0.68907 20.7567 3.56647 13.81 8.68827 8.68823L7.71379 7.71375C2.33354 13.094 -0.689052 20.3912 -0.689061 28H0.689061ZM4.76686 42.3567C2.12249 38.0771 0.689055 33.1124 0.689061 28H-0.689061C-0.689068 33.3704 0.816746 38.5856 3.59449 43.0811L4.76686 42.3567ZM10.1313 42.6905C8.48649 44.3354 5.89576 44.1836 4.76686 42.3567L3.59449 43.0811C5.28238 45.8127 8.9615 45.8093 11.1058 43.665L10.1313 42.6905ZM18.5683 34.2535L10.1313 42.6905L11.1058 43.665L19.5428 35.228L18.5683 34.2535ZM45.8686 13.3094C47.5135 11.6646 50.1042 11.8163 51.2331 13.6433L52.4055 12.9188C50.7176 10.1872 47.0384 10.1906 44.8942 12.3349L45.8686 13.3094ZM37.4316 21.7464L45.8686 13.3094L44.8942 12.3349L36.4572 20.7719L37.4316 21.7464ZM39.8891 28C39.8891 25.4034 39.0396 22.8944 37.4947 20.8445L36.3941 21.6739C37.76 23.4862 38.5109 25.7044 38.5109 28H39.8891ZM36.4068 36.4068C38.6365 34.1772 39.8891 31.1532 39.8891 28H38.5109C38.5109 30.7877 37.4035 33.4612 35.4323 35.4324L36.4068 36.4068ZM28 39.8891C31.1532 39.8891 34.1772 38.6365 36.4068 36.4068L35.4323 35.4324C33.4612 37.4035 30.7877 38.5109 28 38.5109V39.8891ZM20.8444 37.4947C22.8944 39.0396 25.4034 39.8891 28 39.8891V38.5109C25.7044 38.5109 23.4862 37.76 21.6739 36.3941L20.8444 37.4947ZM13.3094 45.8686L21.7464 37.4316L20.7719 36.4571L12.3349 44.8941L13.3094 45.8686ZM13.6432 51.2331C11.8163 50.1042 11.6646 47.5134 13.3094 45.8686L12.3349 44.8941C10.1906 47.0384 10.1872 50.7175 12.9188 52.4054L13.6432 51.2331ZM28 55.3109C22.8875 55.3109 17.9228 53.8775 13.6432 51.2331L12.9188 52.4054C17.4143 55.1832 22.6295 56.6891 28 56.6891V55.3109ZM47.3117 47.3118C42.1899 52.4335 35.2433 55.3109 28 55.3109V56.6891C35.6088 56.6891 42.906 53.6665 48.2862 48.2862L47.3117 47.3118ZM55.3109 28C55.3109 35.2433 52.4335 42.19 47.3117 47.3118L48.2862 48.2862C53.6665 42.906 56.6891 35.6088 56.6891 28H55.3109ZM51.2331 13.6433C53.8775 17.9229 55.3109 22.8875 55.3109 28H56.6891C56.6891 22.6295 55.1832 17.4143 52.4055 12.9188L51.2331 13.6433Z" fill="url(#paint1_radial_2158_243)" mask="url(#path-1-inside-1_2158_243)"/>
</g>


<defs>

<radialGradient id="paint0_radial_2158_243" cx="0" cy="0" r="1" gradientUnits="userSpaceOnUse" gradientTransform="translate(8.05 5.6) rotate(48.0199) scale(59.7274)">
<stop offset="0.01" stop-color="#F7D8FF"/>
<stop offset="0.325921" stop-color="#E999FE"/>
<stop offset="0.769106" stop-color="#AF41FF"/>
<stop offset="0.995" stop-color="#6C10AE"/>
</radialGradient>

</defs>
</svg>