<svg xmlns="http://www.w3.org/2000/svg" width="129" height="128" viewBox="0 0 129 128" fill="none">
<path d="M124.2 64C124.2 97.1371 97.3373 124 64.2002 124C31.0631 124 4.2002 97.1371 4.2002 64C4.2002 30.8629 31.0631 4 64.2002 4C97.3373 4 124.2 30.8629 124.2 64Z" fill="#2A5ADA"/>
<path d="M99.2002 64.0001C99.2002 67.2074 97.9521 70.1172 95.9246 72.2513L79.8952 88.6098C78.9881 89.5177 77.9356 90.275 76.7767 90.8418C75.2587 91.5843 73.5582 92.0001 71.7626 92.0001C69.9664 92.0001 68.3435 91.5217 66.8253 90.7789C65.6338 90.196 64.4619 89.4598 63.5378 88.5175L50.3666 75.0758C51.6428 73.4245 53.621 72.3645 55.8417 72.3645C57.4952 72.3645 59.0143 72.9522 60.2093 73.9341L68.5868 82.4837C69.4184 83.2823 70.5298 83.7629 71.7617 83.7629C72.9938 83.7629 74.1139 83.2735 74.9455 82.4747L89.9067 67.2062C90.6661 66.3621 91.1297 65.2364 91.1297 64.0001C91.1297 62.7642 90.6663 61.6386 89.9072 60.7946L74.9042 45.4835C74.0772 44.7085 72.9741 44.2354 71.7627 44.2354C70.5515 44.2354 69.4485 44.7084 68.6215 45.4832L31.1756 83.6984C30.7219 84.1598 29.9876 84.1592 29.5345 83.6968C29.3377 83.496 29.2263 83.241 29.2002 82.9789V75.5072C29.2002 74.8868 29.4337 74.322 29.8159 73.8995L36.3525 67.2286C37.1194 66.383 37.5882 65.2516 37.5882 64.0084C37.5882 62.6994 37.0764 61.5129 36.236 60.6549L29.8633 54.1513C29.8224 54.1086 29.7831 54.0644 29.7455 54.0186C29.4068 53.6069 29.2022 53.0725 29.2002 52.4944L29.2002 52.486L29.2002 52.4776V45.0245C29.2263 44.7623 29.3377 44.5073 29.5345 44.3065C29.9881 43.8436 30.7246 43.8436 31.1782 44.3065L41.7523 55.0979C42.5897 55.932 43.7331 56.437 44.9957 56.437C46.258 56.437 47.4036 55.9297 48.2409 55.0959L63.6536 39.3667C64.555 38.4696 65.5989 37.7208 66.7473 37.1589C68.2655 36.4161 69.9664 36.0001 71.7624 36.0001C73.5587 36.0001 75.2597 36.4162 76.778 37.1591C77.9364 37.7259 78.9884 38.4829 79.8952 39.3905L95.9245 55.7489C96.7931 56.6631 97.5186 57.7197 98.0642 58.8811C98.7923 60.4307 99.2002 62.1668 99.2002 64.0001Z" fill="white"/>
</svg>